<?xml version="1.0" encoding="UTF-8"?>
<svg id="_레이어_1" data-name="레이어 1" xmlns="http://www.w3.org/2000/svg" xmlns:xlink="http://www.w3.org/1999/xlink" viewBox="0 0 163.33 163.64">
  <defs>
    <linearGradient id="_무제_그라디언트_31" data-name="무제 그라디언트 31" x1="-2.97" y1="-4.44" x2="183.34" y2="193.25" gradientUnits="userSpaceOnUse">
      <stop offset="0" stop-color="#0b318f"/>
      <stop offset="1" stop-color="#7ccbdd"/>
    </linearGradient>
    <linearGradient id="_무제_그라디언트_31-2" data-name="무제 그라디언트 31" x1="19.96" y1="-26.04" x2="206.26" y2="171.65" xlink:href="#_무제_그라디언트_31"/>
    <linearGradient id="_무제_그라디언트_31-3" data-name="무제 그라디언트 31" x1="42.76" y1="-47.53" x2="229.06" y2="150.16" xlink:href="#_무제_그라디언트_31"/>
    <linearGradient id="_무제_그라디언트_31-4" data-name="무제 그라디언트 31" x1="65.68" y1="-69.14" x2="251.99" y2="128.55" xlink:href="#_무제_그라디언트_31"/>
    <linearGradient id="_무제_그라디언트_31-5" data-name="무제 그라디언트 31" x1="-25.24" y1="16.55" x2="161.07" y2="214.24" xlink:href="#_무제_그라디언트_31"/>
    <linearGradient id="_무제_그라디언트_31-6" data-name="무제 그라디언트 31" x1="-2.31" y1="-5.06" x2="183.99" y2="192.63" xlink:href="#_무제_그라디언트_31"/>
    <linearGradient id="_무제_그라디언트_31-7" data-name="무제 그라디언트 31" x1="20.49" y1="-26.54" x2="206.79" y2="171.15" xlink:href="#_무제_그라디언트_31"/>
    <linearGradient id="_무제_그라디언트_31-8" data-name="무제 그라디언트 31" x1="43.41" y1="-48.15" x2="229.72" y2="149.54" xlink:href="#_무제_그라디언트_31"/>
    <linearGradient id="_무제_그라디언트_31-9" data-name="무제 그라디언트 31" x1="-46.51" y1="36.6" x2="139.8" y2="234.29" xlink:href="#_무제_그라디언트_31"/>
    <linearGradient id="_무제_그라디언트_31-10" data-name="무제 그라디언트 31" x1="-23.59" y1="14.99" x2="162.72" y2="212.68" xlink:href="#_무제_그라디언트_31"/>
    <linearGradient id="_무제_그라디언트_31-11" data-name="무제 그라디언트 31" x1="-.79" y1="-6.5" x2="185.52" y2="191.19" xlink:href="#_무제_그라디언트_31"/>
    <linearGradient id="_무제_그라디언트_31-12" data-name="무제 그라디언트 31" x1="22.14" y1="-28.1" x2="208.45" y2="169.59" xlink:href="#_무제_그라디언트_31"/>
    <linearGradient id="_무제_그라디언트_31-13" data-name="무제 그라디언트 31" x1="-68.78" y1="57.58" x2="117.53" y2="255.27" xlink:href="#_무제_그라디언트_31"/>
    <linearGradient id="_무제_그라디언트_31-14" data-name="무제 그라디언트 31" x1="-45.86" y1="35.98" x2="140.45" y2="233.67" xlink:href="#_무제_그라디언트_31"/>
    <linearGradient id="_무제_그라디언트_31-15" data-name="무제 그라디언트 31" x1="-23.06" y1="14.49" x2="163.25" y2="212.18" xlink:href="#_무제_그라디언트_31"/>
    <linearGradient id="linear-gradient" x1="-43.42" y1="-51.35" x2="142.89" y2="146.34" gradientUnits="userSpaceOnUse">
      <stop offset="0" stop-color="#d3101a"/>
      <stop offset="1" stop-color="#ea5745"/>
    </linearGradient>
  </defs>
  <path d="m12.38,0C5.85,0,.53,5.31.53,11.85s5.31,11.84,11.85,11.84,11.84-5.31,11.84-11.84S18.9,0,12.38,0Z" style="fill: url(#_무제_그라디언트_31);"/>
  <path d="m55.67,0c-6.53,0-11.85,5.31-11.85,11.85s5.31,11.84,11.85,11.84,11.84-5.31,11.84-11.84S62.19,0,55.67,0Z" style="fill: url(#_무제_그라디언트_31-2);"/>
  <path d="m98.72,0c-6.53,0-11.85,5.31-11.85,11.85s5.31,11.84,11.85,11.84,11.84-5.31,11.84-11.84S105.24,0,98.72,0Z" style="fill: url(#_무제_그라디언트_31-3);"/>
  <path d="m142,23.69c6.53,0,11.84-5.31,11.84-11.84s-5.31-11.85-11.84-11.85-11.85,5.31-11.85,11.85,5.31,11.84,11.85,11.84Z" style="fill: url(#_무제_그라디언트_31-4);"/>
  <path d="m12.02,67.93c6.53,0,11.84-5.31,11.84-11.85s-5.31-11.84-11.84-11.84S.17,49.56.17,56.08s5.31,11.85,11.85,11.85Z" style="fill: url(#_무제_그라디언트_31-5);"/>
  <path d="m55.31,67.93c6.53,0,11.84-5.31,11.84-11.85s-5.31-11.84-11.84-11.84-11.85,5.31-11.85,11.84,5.31,11.85,11.85,11.85Z" style="fill: url(#_무제_그라디언트_31-6);"/>
  <path d="m98.36,67.93c6.53,0,11.84-5.31,11.84-11.85s-5.31-11.84-11.84-11.84-11.85,5.31-11.85,11.84,5.31,11.85,11.85,11.85Z" style="fill: url(#_무제_그라디언트_31-7);"/>
  <path d="m141.65,67.93c6.53,0,11.84-5.31,11.84-11.85s-5.31-11.84-11.84-11.84-11.85,5.31-11.85,11.84,5.31,11.85,11.85,11.85Z" style="fill: url(#_무제_그라디언트_31-8);"/>
  <path d="m12.2,87.05c-6.53,0-11.84,5.31-11.84,11.85s5.31,11.84,11.84,11.84,11.85-5.31,11.85-11.84-5.31-11.85-11.85-11.85Z" style="fill: url(#_무제_그라디언트_31-9);"/>
  <path d="m55.48,87.05c-6.53,0-11.84,5.31-11.84,11.85s5.31,11.84,11.84,11.84,11.85-5.31,11.85-11.84-5.31-11.85-11.85-11.85Z" style="fill: url(#_무제_그라디언트_31-10);"/>
  <path d="m98.53,87.05c-6.53,0-11.84,5.31-11.84,11.85s5.31,11.84,11.84,11.84,11.85-5.31,11.85-11.84-5.31-11.85-11.85-11.85Z" style="fill: url(#_무제_그라디언트_31-11);"/>
  <path d="m141.82,87.05c-6.53,0-11.84,5.31-11.84,11.85s5.31,11.84,11.84,11.84,11.85-5.31,11.85-11.84-5.31-11.85-11.85-11.85Z" style="fill: url(#_무제_그라디언트_31-12);"/>
  <path d="m11.84,154.98c6.53,0,11.85-5.31,11.85-11.84s-5.31-11.85-11.85-11.85-11.84,5.32-11.84,11.85,5.31,11.84,11.84,11.84Z" style="fill: url(#_무제_그라디언트_31-13);"/>
  <path d="m55.13,154.98c6.53,0,11.85-5.31,11.85-11.84s-5.31-11.85-11.85-11.85-11.84,5.32-11.84,11.85,5.31,11.84,11.84,11.84Z" style="fill: url(#_무제_그라디언트_31-14);"/>
  <path d="m98.18,154.98c6.53,0,11.85-5.31,11.85-11.84s-5.31-11.85-11.85-11.85-11.84,5.32-11.84,11.85,5.31,11.84,11.84,11.84Z" style="fill: url(#_무제_그라디언트_31-15);"/>
  <path d="m98.18,81.56c-9.55,0-17.33,7.78-17.33,17.34s7.78,17.32,17.33,17.32,17.33-7.77,17.33-17.32-7.78-17.34-17.33-17.34Z" style="fill: url(#linear-gradient);"/>
  <path d="m159.99,144.15l-27.41-27.32.34-.67c2.77-5.46,4.24-11.54,4.24-17.62,0-10.4-4.05-20.18-11.4-27.53-7.35-7.35-17.12-11.39-27.52-11.39s-20.19,4.04-27.52,11.39c-7.35,7.36-11.4,17.14-11.4,27.53s4.04,20.18,11.4,27.52c7.36,7.35,17.14,11.39,27.52,11.39,6.17,0,12.1-1.42,17.62-4.23l.67-.34,27.33,27.4c2.16,2.16,5.03,3.34,8.07,3.34s5.91-1.18,8.07-3.35c4.45-4.45,4.45-11.69,0-16.13Zm-43.33-27.19c-4.91,4.92-11.45,7.64-18.42,7.64s-13.51-2.71-18.43-7.64h0c-4.92-4.94-7.64-11.48-7.64-18.42s2.71-13.5,7.64-18.43c4.93-4.93,11.48-7.64,18.43-7.64s13.51,2.72,18.42,7.64c4.92,4.92,7.64,11.46,7.64,18.43s-2.71,13.5-7.64,18.42Z" style="fill: #0b318f;"/>
</svg>